<svg class="ibanner__usp-icon" xmlns="http://www.w3.org/2000/svg" xmlns:xlink="http://www.w3.org/1999/xlink" viewBox="0 0 100 100"><defs><circle id="a3" cx="50" cy="50" r="50"/></defs><clipPath id="b3"><use xlink:href="#a3" overflow="visible"/></clipPath><path clip-path="url(#b3)" fill="#5080FA" d="M-5-5h110v110H-5z"/><defs><path id="c3" d="M62 63c-.4-.2-.4-.4 0-1-.4-3 2.2-5.8 5-6 3.7.2 6.3 3 6 6 .3.6.3.8 0 1h5c.9 0 2-1.3 2-3v-8c0-2.2-7-5-13-6-1.8-.8-6.8-8.3-7-8-1-1.7-2.2-3-5-3H27c-1.7 0-3 1.3-3 3.9v22.2c0 1.2 1.5 1.9 3 1.9h3c.3-.2.3-.4 0-1 .3-3 2.9-5.8 6-6 3.4.2 6.1 3 6 6 .1.6.1.8 0 1h20z"/></defs><clipPath id="d3"><use xlink:href="#c3" overflow="visible"/></clipPath><path clip-path="url(#d3)" fill="none" stroke="#FFF" stroke-width="4" stroke-miterlimit="10" d="M62 63c-.4-.2-.4-.4 0-1-.4-3 2.2-5.8 5-6 3.7.2 6.3 3 6 6 .3.6.3.8 0 1h5c.9 0 2-1.3 2-3v-8c0-2.2-7-5-13-6-1.8-.8-6.8-8.3-7-8-1-1.7-2.2-3-5-3H27c-1.7 0-3 1.3-3 3.9v22.2c0 1.2 1.5 1.9 3 1.9h3c.3-.2.3-.4 0-1 .3-3 2.9-5.8 6-6 3.4.2 6.1 3 6 6 .1.6.1.8 0 1h20z"/><path fill="none" stroke="#FFF" stroke-width="2" stroke-miterlimit="10" d="M44 62h-1.1c.2 3.9-3.1 7-6.4 7-4 0-7.5-3.1-7.5-7M75 62h-1c.2 3.9-2.9 7-6 7-3.7 0-7-2.2-7-7"/></svg>