<svg class="ibanner__usp-icon" xmlns="http://www.w3.org/2000/svg" xmlns:xlink="http://www.w3.org/1999/xlink" viewBox="0 0 100 100"><defs><path id="a1" d="M0 0h100v100H0z"/></defs><clipPath id="b1"><use xlink:href="#a1" overflow="visible"/></clipPath><path clip-path="url(#b1)" fill="#5080FA" d="M50 0c27.6 0 50 22.4 50 50s-22.4 50-50 50S0 77.6 0 50 22.4 0 50 0"/><path clip-path="url(#b1)" fill="#FFF" d="M50 73.2c-12.8 0-23.2-10.4-23.2-23.2 0-12.8 10.4-23.2 23.2-23.2 12.8 0 23.2 10.4 23.2 23.2 0 12.8-10.4 23.2-23.2 23.2M50 25c-13.8 0-25 11.2-25 25s11.2 25 25 25 25-11.2 25-25-11.2-25-25-25"/><path clip-path="url(#b1)" fill="#FFF" d="M62.3 37.3L51.1 48.5c-.3-.2-.7-.3-1.1-.3-.4 0-.8.1-1.1.3l-7.2-7.2c-.3-.3-.9-.3-1.2 0-.3.3-.3.9 0 1.2l7.2 7.2c-.2.3-.3.7-.3 1.1 0 1.5 1.2 2.6 2.6 2.6 1.5 0 2.6-1.2 2.6-2.6 0-.4-.1-.8-.3-1.1l11.2-11.2c.3-.3.3-.9 0-1.2-.3-.3-.9-.3-1.2 0"/></svg>