<svg class="ibanner__usp-icon" xmlns="http://www.w3.org/2000/svg" xmlns:xlink="http://www.w3.org/1999/xlink" viewBox="0 0 100 100"><defs><circle id="a2" cx="50" cy="50" r="50"/></defs><clipPath id="b2"><use xlink:href="#a2" overflow="visible"/></clipPath><path clip-path="url(#b2)" fill="#5080FA" d="M-5-5h110v110H-5z"/><defs><path id="c2" d="M49.4 44.7l-26 15.8c-.8.5-.5 1.7.5 1.7h53.5c.9 0 1.3-1.2.5-1.7L52.1 44.8c-.2-.1-2.6-.2-2.7-.1zm21.9 13.9c.8.5 0 1.4-.9 1.4H30.8c-.9 0-1.5-.9-.7-1.4l20.1-12.3c.3-.2.7-.2 1 0l20.1 12.3z"/></defs><clipPath id="d2"><use xlink:href="#c2" overflow="visible"/></clipPath><path clip-path="url(#d2)" fill="#FFF" d="M18 39.7h65.3v27.5H18z"/><g><defs><path id="e2" d="M52.1 44.8c-.3-.4 0-.9 1.1-2.3l1.6-2.1.1-.2c.8-1.5 1.3-5-1.9-7.1-2.5-1.6-5.1-1-6.7-.2-.5.3-.6.9-.3 1.4.3.3.8.4 1.1.2.9-.5 2.8-1.1 4.8.1 2.3 1.4 1.7 3.7 1.4 4.4 0 .1-.1.2-.2.3l-3.8 5.2c0 .3 3.2.8 2.8.3"/></defs><clipPath id="f2"><use xlink:href="#e2" overflow="visible"/></clipPath><path clip-path="url(#f2)" fill="#FFF" d="M40.8 27.2h19.7v22.9H40.8z"/></g><g><defs><path id="g2" d="M49.3 32.2c-.4 0-.8.1-1.3.2-2.9.7-4.3 2.9-4.8 4.6-.2.5.2 1 .8 1.1.4 0 .9-.2 1-.6.3-1 1.2-2.8 3.5-3.3.3-.1.6-.1.8-.1v-1.9"/></defs><clipPath id="h2"><use xlink:href="#g2" overflow="visible"/></clipPath><path clip-path="url(#h2)" fill="#FFF" d="M38.2 27.2h16.1v15.9H38.2z"/></g></svg>